<svg width="57" height="40" viewBox="0 0 57 40" fill="none" xmlns="http://www.w3.org/2000/svg">
<g clip-path="url(#clip0_229_8092)">
<path d="M43.3902 11.85L33.3269 6L30.7156 7.51941V26.2835L28.446 27.6035L25.5332 29.2959L23.5633 30.4429L16.411 26.2835V14.4265L13.5 16.1188V27.0935L23.5633 32.9453L28.446 30.1076L28.5617 30.0388L31.357 28.4135L33.6266 27.0935V9.55941L40.4774 13.5441L43.3902 15.2365V11.85Z" fill="white"/>
<g clip-path="url(#clip1_229_8092)">
<path d="M13.5 15.0597L16.3751 13.3998L23.1413 9.49131V26.6899L25.3846 27.9847L27.512 26.7574L28.2615 26.3247L26.0182 25.03V7.49034L23.4391 6L23.1413 6.17136L16.3751 10.0781L13.5 11.7381V15.0597Z" fill="white"/>
</g>
<g clip-path="url(#clip2_229_8092)">
<path d="M40.8803 24.3232L33.818 28.403L32.6219 27.7107L31.8724 28.1434L29.7451 29.3724L33.818 31.723L43.7571 25.9832V15.2185L40.8803 13.5585V24.3232Z" fill="white"/>
</g>
</g>
<defs>
<clipPath id="clip0_229_8092">
<rect width="30" height="27" fill="white" transform="translate(13.5 6)"/>
</clipPath>
<clipPath id="clip1_229_8092">
<rect width="14.7615" height="21.9847" fill="white" transform="translate(13.5 6)"/>
</clipPath>
<clipPath id="clip2_229_8092">
<rect width="14.012" height="18.1645" fill="white" transform="translate(29.7451 13.5585)"/>
</clipPath>
</defs>
</svg>
