<svg width="170" height="45" viewBox="0 0 170 45" fill="none" xmlns="http://www.w3.org/2000/svg">
<path d="M49.817 9.75L33.0448 0L28.6926 2.53235V33.8059L24.91 36.0059L20.0553 38.8265L16.7722 40.7382L4.85172 33.8059V14.0441L0 16.8647V35.1559L16.7722 44.9088L24.91 40.1794L25.1028 40.0647L29.7617 37.3559L33.5443 35.1559V5.93235L44.9624 12.5735L49.817 15.3941V9.75Z" fill="white"/>
<g clip-path="url(#clip0_166_5780)">
<path d="M0 15.2883L4.85172 12.4871L16.2698 5.89158V34.9143L20.0553 37.0991L23.6452 35.0282L24.91 34.2979L21.1244 32.1131V2.51495L16.7722 0L16.2698 0.289175L4.85172 6.88179L0 9.68299V15.2883Z" fill="white"/>
</g>
<g clip-path="url(#clip1_166_5780)">
<path d="M45.0791 32.186L33.1616 39.0707L31.1432 37.9023L29.8784 38.6325L26.2886 40.7064L33.1616 44.6731L49.9338 34.9872V16.8217L45.0791 14.0205V32.186Z" fill="white"/>
</g>
<path d="M158.294 25.5966L162.424 18.3224H165.561V29.7938H162.529V22.4972L158.414 29.7938H155.254V18.3224H158.294V25.5966ZM161.879 14.3193H164.097C164.092 15.2255 163.756 15.9549 163.089 16.5076C162.427 17.0602 161.53 17.3366 160.4 17.3366C159.265 17.3366 158.366 17.0602 157.704 16.5076C157.042 15.9549 156.711 15.2255 156.711 14.3193H158.914C158.909 14.6629 159.018 14.9716 159.243 15.2454C159.472 15.5193 159.857 15.6562 160.4 15.6562C160.928 15.6562 161.306 15.5217 161.535 15.2529C161.764 14.984 161.879 14.6728 161.879 14.3193Z" fill="white"/>
<path d="M147.54 30.0179C146.38 30.0179 145.376 29.7715 144.53 29.2786C143.688 28.7807 143.039 28.0886 142.581 27.2024C142.123 26.3111 141.894 25.278 141.894 24.103C141.894 22.918 142.123 21.8824 142.581 20.9961C143.039 20.1049 143.688 19.4128 144.53 18.9199C145.376 18.422 146.38 18.1731 147.54 18.1731C148.7 18.1731 149.7 18.422 150.542 18.9199C151.388 19.4128 152.041 20.1049 152.499 20.9961C152.957 21.8824 153.186 22.918 153.186 24.103C153.186 25.278 152.957 26.3111 152.499 27.2024C152.041 28.0886 151.388 28.7807 150.542 29.2786C149.7 29.7715 148.7 30.0179 147.54 30.0179ZM147.555 27.5534C148.082 27.5534 148.523 27.404 148.876 27.1053C149.23 26.8016 149.496 26.3883 149.676 25.8655C149.86 25.3427 149.952 24.7478 149.952 24.0806C149.952 23.4134 149.86 22.8184 149.676 22.2956C149.496 21.7728 149.23 21.3596 148.876 21.0559C148.523 20.7522 148.082 20.6003 147.555 20.6003C147.022 20.6003 146.574 20.7522 146.21 21.0559C145.852 21.3596 145.58 21.7728 145.396 22.2956C145.217 22.8184 145.127 23.4134 145.127 24.0806C145.127 24.7478 145.217 25.3427 145.396 25.8655C145.58 26.3883 145.852 26.8016 146.21 27.1053C146.574 27.404 147.022 27.5534 147.555 27.5534Z" fill="white"/>
<path d="M129.048 34.0957V18.3225H132.185V20.2493H132.326C132.466 19.9406 132.668 19.6269 132.931 19.3083C133.2 18.9847 133.549 18.7158 133.977 18.5017C134.41 18.2826 134.948 18.1731 135.59 18.1731C136.427 18.1731 137.198 18.3922 137.905 18.8303C138.612 19.2635 139.177 19.9182 139.601 20.7945C140.024 21.6658 140.235 22.7587 140.235 24.0731C140.235 25.3527 140.029 26.4331 139.616 27.3144C139.207 28.1907 138.65 28.8554 137.943 29.3084C137.241 29.7565 136.454 29.9806 135.583 29.9806C134.965 29.9806 134.44 29.8785 134.007 29.6744C133.579 29.4702 133.228 29.2138 132.954 28.9051C132.68 28.5915 132.471 28.2753 132.326 27.9567H132.229V34.0957H129.048ZM132.162 24.0582C132.162 24.7403 132.257 25.3353 132.446 25.8431C132.635 26.351 132.909 26.7468 133.267 27.0306C133.626 27.3094 134.062 27.4488 134.574 27.4488C135.092 27.4488 135.53 27.3069 135.889 27.0231C136.247 26.7343 136.519 26.336 136.703 25.8282C136.892 25.3153 136.987 24.7253 136.987 24.0582C136.987 23.396 136.895 22.8134 136.71 22.3106C136.526 21.8077 136.255 21.4144 135.896 21.1306C135.538 20.8468 135.097 20.7049 134.574 20.7049C134.057 20.7049 133.618 20.8418 133.26 21.1156C132.907 21.3895 132.635 21.7778 132.446 22.2807C132.257 22.7836 132.162 23.3761 132.162 24.0582Z" fill="white"/>
<path d="M116.723 20.8244V18.3225H127.119V20.8244H123.423V29.7939H120.39V20.8244H116.723Z" fill="white"/>
<path d="M115.062 19.8535H111.79C111.731 19.4303 111.609 19.0544 111.424 18.7258C111.24 18.3922 111.004 18.1084 110.715 17.8744C110.426 17.6404 110.093 17.4611 109.714 17.3366C109.341 17.2122 108.935 17.1499 108.497 17.1499C107.705 17.1499 107.016 17.3466 106.428 17.7399C105.841 18.1283 105.385 18.6959 105.061 19.4427C104.738 20.1846 104.576 21.0858 104.576 22.1463C104.576 23.2367 104.738 24.1528 105.061 24.8946C105.39 25.6365 105.848 26.1966 106.436 26.575C107.023 26.9534 107.703 27.1426 108.474 27.1426C108.908 27.1426 109.308 27.0854 109.677 26.9708C110.05 26.8563 110.381 26.6895 110.67 26.4705C110.959 26.2464 111.198 25.9751 111.387 25.6564C111.581 25.3378 111.716 24.9743 111.79 24.566L115.062 24.581C114.977 25.283 114.765 25.9601 114.427 26.6124C114.093 27.2596 113.643 27.8397 113.075 28.3525C112.512 28.8603 111.84 29.2636 111.059 29.5624C110.282 29.8561 109.403 30.003 108.422 30.003C107.058 30.003 105.838 29.6943 104.763 29.0769C103.692 28.4595 102.846 27.5658 102.223 26.3958C101.606 25.2257 101.297 23.8092 101.297 22.1463C101.297 20.4783 101.611 19.0594 102.238 17.8893C102.866 16.7193 103.717 15.828 104.793 15.2156C105.868 14.5982 107.078 14.2896 108.422 14.2896C109.308 14.2896 110.13 14.414 110.887 14.663C111.649 14.9119 112.323 15.2754 112.911 15.7534C113.498 16.2263 113.976 16.8064 114.345 17.4935C114.718 18.1806 114.957 18.9672 115.062 19.8535Z" fill="white"/>
<path d="M92.1448 26.2763L95.2516 18.3225H97.6714L93.1978 29.7939H91.0843L86.7153 18.3225H89.1276L92.1448 26.2763ZM88.4032 18.3225V29.7939H85.3635V18.3225H88.4032ZM96.0433 29.7939V18.3225H99.0456V29.7939H96.0433Z" fill="white"/>
<path d="M77.6488 30.0179C76.4887 30.0179 75.4854 29.7715 74.639 29.2786C73.7976 28.7807 73.1478 28.0886 72.6898 27.2024C72.2317 26.3111 72.0027 25.278 72.0027 24.103C72.0027 22.918 72.2317 21.8824 72.6898 20.9961C73.1478 20.1049 73.7976 19.4128 74.639 18.9199C75.4854 18.422 76.4887 18.1731 77.6488 18.1731C78.8089 18.1731 79.8096 18.422 80.6511 18.9199C81.4975 19.4128 82.1497 20.1049 82.6078 20.9961C83.0658 21.8824 83.2949 22.918 83.2949 24.103C83.2949 25.278 83.0658 26.3111 82.6078 27.2024C82.1497 28.0886 81.4975 28.7807 80.6511 29.2786C79.8096 29.7715 78.8089 30.0179 77.6488 30.0179ZM77.6637 27.5534C78.1915 27.5534 78.6321 27.404 78.9856 27.1053C79.3391 26.8016 79.6055 26.3883 79.7847 25.8655C79.9689 25.3427 80.0611 24.7478 80.0611 24.0806C80.0611 23.4134 79.9689 22.8184 79.7847 22.2956C79.6055 21.7728 79.3391 21.3596 78.9856 21.0559C78.6321 20.7522 78.1915 20.6003 77.6637 20.6003C77.131 20.6003 76.6829 20.7522 76.3194 21.0559C75.9609 21.3596 75.6896 21.7728 75.5053 22.2956C75.3261 22.8184 75.2365 23.4134 75.2365 24.0806C75.2365 24.7478 75.3261 25.3427 75.5053 25.8655C75.6896 26.3883 75.9609 26.8016 76.3194 27.1053C76.6829 27.404 77.131 27.5534 77.6637 27.5534Z" fill="white"/>
<path d="M55.1223 33.4834V27.2174H56.1604C56.5139 26.9635 56.8376 26.605 57.1313 26.142C57.4251 25.6739 57.6765 25.0292 57.8856 24.2077C58.0947 23.3812 58.2441 22.3007 58.3337 20.9664L58.7669 14.4988H68.8865V27.2174H70.5594V33.4684H67.4526V29.794H58.2292V33.4834H55.1223ZM59.8946 27.2174H65.7797V17.165H61.6795L61.4406 20.9664C61.3758 21.9771 61.2688 22.8733 61.1194 23.655C60.975 24.4367 60.7983 25.1213 60.5892 25.7088C60.385 26.2913 60.1535 26.7942 59.8946 27.2174Z" fill="white"/>
<defs>
<clipPath id="clip0_166_5780">
<rect width="24.91" height="37.0991" fill="white"/>
</clipPath>
<clipPath id="clip1_166_5780">
<rect width="23.6452" height="30.6526" fill="white" transform="translate(26.2886 14.0205)"/>
</clipPath>
</defs>
</svg>
